<!--?xml version="1.0" encoding="UTF-8"?-->
<!-- Generator: Adobe Illustrator 21.0.2, SVG Export Plug-In . SVG Version: 6.00 Build 0)  -->
<svg version="1.0" id="Calque_1" xmlns="http://www.w3.org/2000/svg" xmlns:xlink="http://www.w3.org/1999/xlink" x="0px" y="0px" viewBox="0 0 816.667 268.333" enable-background="new 0 0 816.667 268.333" xml:space="preserve">
<g>
	<path fill="#095975" d="M392.582,43.146h24.453c13.529,0,20.295,5.776,20.295,17.325c0,8.118-3.037,13.464-9.108,16.038   c7.589,2.376,11.385,7.821,11.385,16.335c0,6.93-1.799,11.847-5.396,14.751c-3.598,2.904-8.828,4.355-15.691,4.355h-25.938V43.146z    M416.838,48.591H398.72v25.641h19.008c4.619,0,8.002-1.104,10.148-3.316c2.144-2.21,3.217-5.494,3.217-9.851   c0-4.356-1.172-7.524-3.515-9.504C425.236,49.581,421.654,48.591,416.838,48.591z M417.827,79.578H398.72v26.928h19.701   c4.817,0,8.514-1.021,11.088-3.068c2.574-2.045,3.861-5.644,3.861-10.792C433.371,83.934,428.188,79.578,417.827,79.578z"></path>
	<path fill="#095975" d="M456.625,84.825v27.126h-6.138V43.146h25.245c7.192,0,12.556,1.634,16.087,4.901   c3.53,3.267,5.297,8.432,5.297,15.493c0,11.023-4.423,17.721-13.267,20.097l14.157,28.314h-6.831l-13.562-27.126H456.625z    M490.78,63.639c0-5.148-1.223-8.942-3.663-11.385c-2.442-2.441-6.237-3.663-11.385-3.663h-19.107V79.38h19.107   C485.763,79.38,490.78,74.133,490.78,63.639z"></path>
	<path fill="#095975" d="M507.965,111.951V43.146h41.283v5.544h-35.146v25.542h29.205v5.445h-29.205v26.829h35.146v5.445H507.965z"></path>
	<path fill="#095975" d="M558.929,111.951V43.146h12.078l28.809,63.36h2.277v-63.36h6.039v68.805h-11.881L567.245,48.69h-2.178   v63.261H558.929z"></path>
	<path fill="#095975" d="M622.051,111.951V43.146h12.078l28.809,63.36h2.277v-63.36h6.039v68.805h-11.881L630.367,48.69h-2.178   v63.261H622.051z"></path>
	<path fill="#095975" d="M690.945,91.755c0,10.428,5.708,15.641,17.127,15.641c5.94,0,10.396-1.22,13.365-3.662   c2.97-2.441,4.455-6.435,4.455-11.979V43.146h6.138v48.609c0,7.459-2.014,12.854-6.039,16.186c-4.026,3.334-9.917,5-17.671,5   c-7.757,0-13.598-1.666-17.523-5c-3.928-3.332-5.891-8.727-5.891-16.186V43.146h6.039V91.755z"></path>
	<path fill="#095975" d="M763.838,47.502c-10.627,0-15.938,4.059-15.938,12.177c0,4.752,1.203,7.954,3.613,9.603   c2.408,1.65,7.128,3.168,14.157,4.554c7.029,1.386,12.044,3.301,15.048,5.742c3.003,2.442,4.505,6.534,4.505,12.276   c0,7.393-1.832,12.722-5.495,15.989s-9.025,4.9-16.087,4.9c-5.148,0-11.122-0.463-17.919-1.386l-3.564-0.495l0.693-5.247   c9.041,1.123,16.038,1.684,20.987,1.684c4.95,0,8.712-1.204,11.286-3.614c2.574-2.408,3.861-5.94,3.861-10.593   c0-4.653-1.139-7.821-3.416-9.504c-2.276-1.683-5.907-2.986-10.89-3.911c-4.984-0.923-8.63-1.765-10.939-2.524   c-2.311-0.758-4.472-1.847-6.484-3.267c-2.014-1.418-3.449-3.233-4.307-5.445c-0.858-2.21-1.287-4.999-1.287-8.365   c0-12.012,7.26-18.018,21.78-18.018c4.355,0,10.031,0.462,17.028,1.386l3.267,0.495l-0.495,5.247   C774.134,48.063,767.665,47.502,763.838,47.502z"></path>
</g>
<line fill="#1C5B76" stroke="#095975" stroke-width="2" stroke-linecap="round" stroke-miterlimit="10" x1="296.473" y1="138.385" x2="785" y2="138.385"></line>
<g>
	<path fill="#095975" d="M396.685,220.678l16.985-55.3h8.374l16.985,55.3h-2.844l-5.135-16.985h-26.386l-5.135,16.985H396.685z    M415.645,168.064l-10.112,32.943h24.648l-10.112-32.943H415.645z"></path>
	<path fill="#095975" d="M450.72,220.678v-55.3h6.715l26.308,52.614h2.133v-52.614h2.845v55.3h-6.716l-26.386-52.614h-2.055v52.614   H450.72z"></path>
	<path fill="#095975" d="M500.412,220.678l16.984-55.3h8.375l16.984,55.3h-2.844l-5.135-16.985H508.39l-5.135,16.985H500.412z    M519.371,168.064l-10.111,32.943h24.648l-10.112-32.943H519.371z"></path>
	<path fill="#095975" d="M584.23,220.678h-29.783v-55.3h2.845v52.614h26.938V220.678z"></path>
	<path fill="#095975" d="M609.746,220.678h-2.844v-23.779l-18.013-31.521h3.318l16.116,28.36l16.115-28.36h3.318l-18.012,31.521   V220.678z"></path>
	<path fill="#095975" d="M632.34,168.064v-2.686h39.5v2.686h-18.249v52.614h-2.845v-52.614H632.34z"></path>
	<path fill="#095975" d="M682.344,220.678v-55.3h2.845v55.3H682.344z"></path>
	<path fill="#095975" d="M734.247,219.809c-5.268,1.053-10.021,1.58-14.26,1.58c-4.24,0-7.663-0.619-10.27-1.856   c-2.607-1.237-4.622-3.146-6.044-5.728c-1.422-2.58-2.397-5.477-2.923-8.69c-0.527-3.211-0.79-6.925-0.79-11.139   c0-4.213,0.145-7.663,0.435-10.349c0.289-2.687,0.842-5.293,1.659-7.821c0.815-2.528,1.936-4.555,3.357-6.083   c3.16-3.37,7.899-5.056,14.22-5.056c4.634,0,9.506,0.501,14.615,1.501l-0.237,2.765c-5.056-1.053-9.44-1.58-13.153-1.58   s-6.597,0.422-8.65,1.265s-3.674,1.935-4.858,3.278c-1.186,1.343-2.107,3.187-2.766,5.529c-0.659,2.345-1.093,4.701-1.303,7.071   c-0.211,2.37-0.316,5.293-0.316,8.769c0,3.477,0.105,6.399,0.316,8.77c0.21,2.369,0.657,4.688,1.343,6.951   c0.684,2.266,1.632,4.057,2.844,5.372c2.687,2.897,6.741,4.346,12.166,4.346c4.108,0,8.9-0.526,14.378-1.58L734.247,219.809z"></path>
	<path fill="#095975" d="M761.423,167.195c-9.375,0-14.062,3.688-14.062,11.061c0,3.317,0.553,5.715,1.659,7.188   c0.632,0.79,1.29,1.462,1.975,2.015c0.685,0.554,1.686,1.041,3.002,1.462c2.159,0.632,4.898,1.212,8.217,1.738   c5.739,0.896,9.861,2.278,12.363,4.147c2.501,1.87,3.752,5.148,3.752,9.835c0,5.952-1.382,10.205-4.147,12.759   c-2.765,2.555-6.965,3.831-12.6,3.831c-3.477,0-8.138-0.315-13.983-0.947l-2.923-0.316l0.315-2.765   c7.269,0.896,13.008,1.343,17.223,1.343c8.741,0,13.113-4.555,13.113-13.667c0-3.844-1.001-6.504-3.002-7.979   c-2.002-1.474-5.095-2.527-9.282-3.16c-4.187-0.632-7.163-1.197-8.927-1.698c-1.766-0.5-3.477-1.276-5.135-2.33   c-1.659-1.053-2.845-2.488-3.556-4.306s-1.066-4.147-1.066-6.991c0-9.27,5.688-13.904,17.064-13.904   c3.634,0,8.005,0.316,13.113,0.948l2.607,0.315l-0.316,2.766C769.611,167.643,764.476,167.195,761.423,167.195z"></path>
</g>
<polyline fill="#095975" points="155.813,137.871 116.372,203.423 214.657,123.748 "></polyline>
<polyline fill="#095975" points="152.211,132.193 130.936,75.819 86.593,111.759 "></polyline>
<polyline fill="#095975" points="84.658,117.609 30.434,185.394 110.838,206.552 84.658,117.609 "></polyline>
<polyline fill="#095975" points="86.782,117.344 112.701,205.42 153.25,138.039 "></polyline>
<polyline fill="#095975" points="153.631,129.972 175.637,79.565 132.995,75.3 153.631,129.972 "></polyline>
<path fill="#095975" d="M247.673,60.306c34.418-1.434,72.45,0.117,106.359,14.394c0.062,0.026,0.104,0.081,0.163,0.109l0.828,0.141  l-20.435-25.11l-33.48-12.006L247.673,60.306z"></path>
<polyline fill="#095975" points="216.399,125.051 116.949,205.667 208.92,180.356 216.399,125.051 "></polyline>
<polyline fill="#095975" points="157.374,134.591 248.763,86.883 181.151,80.117 157.374,134.591 "></polyline>
<polyline fill="#095975" points="85.517,109.916 128.863,74.782 89.673,69.205 85.517,109.916 "></polyline>
<path fill="#095975" d="M176.523,77.534l8.88-20.342c-3.8-2.583-6.297-6.935-6.297-11.877c0-2.744,0.808-5.282,2.146-7.464  l-23.528-16.875l-24.721,52.205L176.523,77.534z"></path>
<polyline fill="#095975" points="55.262,121.357 29.955,177.547 82.258,112.165 "></polyline>
<polyline fill="#095975" points="83.239,111.438 87.467,70.025 55.262,121.357 "></polyline>
<polyline fill="#095975" points="217.112,120.984 249.822,88.711 163.207,133.927 "></polyline>
<polygon fill="#095975" points="130.786,72.924 155.67,20.382 112.92,46.44 89.763,67.088 "></polygon>
<path fill="#095975" d="M235.627,66.21l17.535,19.266c0.035,0.045,0.04,0.102,0.07,0.154c0.021,0.03,0.065,0.035,0.083,0.069  c0.023,0.042-0.006,0.088,0.011,0.133c0.022,0.055,0.003,0.113,0.015,0.173l44.344-8.322l41.913-2.678  C305.692,64.037,268.464,64.234,235.627,66.21"></path>
<polygon fill="#095975" points="116.061,208.1 199.674,248.724 208.613,182.623 "></polygon>
<path fill="#095975" d="M204.864,53.962c-2.623,3.449-6.73,5.713-11.4,5.713c-1.108,0-2.178-0.155-3.218-0.393l-8.207,18.804  l67.709,6.776l-17.15-18.843C225.926,63.958,214.041,58.437,204.864,53.962"></path>
<path fill="#095975" d="M207.827,45.315c0,1.367-0.255,2.664-0.609,3.919c7.516,3.663,16.814,8.013,23.354,10.493l-8.844-29.97  l-15.459,9.181C207.236,40.866,207.827,43.012,207.827,45.315"></path>
<path fill="#095975" d="M182.497,36.149c2.633-3.149,6.542-5.195,10.97-5.195c4.871,0,9.162,2.44,11.76,6.149l15.771-9.368  l-26.183-8.08l-35.674-0.26L182.497,36.149z"></path>
<path fill="#095975" d="M297.826,36.925l-74.327-8.64l9.532,32.326c0.385,0.129,0.813,0.286,1.164,0.391  c2.428-0.145,4.887-0.286,7.364-0.414L297.826,36.925z"></path>
</svg>